<?xml version="1.0" encoding="UTF-8" standalone="no"?>
<!DOCTYPE svg PUBLIC "-//W3C//DTD SVG 1.1//EN"
 "http://www.w3.org/Graphics/SVG/1.1/DTD/svg11.dtd">
<!-- Generated by graphviz version 2.47.0 (20210316.0004)
 -->
<!-- Title: dependencies Pages: 1 -->
<svg width="3433pt" height="284pt"
 viewBox="0.00 0.00 3433.00 284.00" xmlns="http://www.w3.org/2000/svg" xmlns:xlink="http://www.w3.org/1999/xlink">
<g id="graph0" class="graph" transform="scale(1 1) rotate(0) translate(4 280)">
<title>dependencies</title>
<polygon fill="white" stroke="transparent" points="-4,4 -4,-280 3429,-280 3429,4 -4,4"/>
<text text-anchor="start" x="1691.51" y="-42.4" font-family="Times-12" font-weight="bold" font-size="14.00">Legend</text>
<polygon fill="#ffffb3" stroke="transparent" points="1478.5,-10 1478.5,-30 1498.5,-30 1498.5,-10 1478.5,-10"/>
<text text-anchor="start" x="1502.13" y="-15.4" font-family="Times-12" font-size="14.00"> &#160;Declarations</text>
<polygon fill="#8dd3c7" stroke="transparent" points="1591.5,-10 1591.5,-30 1611.5,-30 1611.5,-10 1591.5,-10"/>
<text text-anchor="start" x="1615.23" y="-15.4" font-family="Times-12" font-size="14.00"> &#160;Module</text>
<polygon fill="#80b1d3" stroke="transparent" points="1677.5,-10 1677.5,-30 1697.5,-30 1697.5,-10 1677.5,-10"/>
<text text-anchor="start" x="1701.28" y="-15.4" font-family="Times-12" font-size="14.00"> &#160;Bootstrap</text>
<polygon fill="#fdb462" stroke="transparent" points="1774.5,-10 1774.5,-30 1794.5,-30 1794.5,-10 1774.5,-10"/>
<text text-anchor="start" x="1798.17" y="-15.4" font-family="Times-12" font-size="14.00"> &#160;Providers</text>
<polygon fill="#fb8072" stroke="transparent" points="1870.5,-10 1870.5,-30 1890.5,-30 1890.5,-10 1870.5,-10"/>
<text text-anchor="start" x="1894.23" y="-15.4" font-family="Times-12" font-size="14.00"> &#160;Exports</text>
<g id="clust1" class="cluster">
<title>cluster_AppModule</title>
<polygon fill="none" stroke="black" stroke-dasharray="1,5" points="8,-70 8,-268 3417,-268 3417,-70 8,-70"/>
</g>
<g id="clust24" class="cluster">
<title>cluster_AppModule_providers</title>
<polygon fill="none" stroke="black" points="2961,-78 2961,-130 3409,-130 3409,-78 2961,-78"/>
</g>
<g id="clust23" class="cluster">
<title>cluster_AppModule_bootstrap</title>
<polygon fill="none" stroke="black" points="1609,-208 1609,-260 1733,-260 1733,-208 1609,-208"/>
</g>
<g id="clust21" class="cluster">
<title>cluster_AppModule_imports</title>
<polygon fill="none" stroke="black" points="2809,-78 2809,-130 2953,-130 2953,-78 2809,-78"/>
</g>
<g id="clust2" class="cluster">
<title>cluster_AppModule_declarations</title>
<polygon fill="none" stroke="black" points="16,-78 16,-130 2801,-130 2801,-78 16,-78"/>
</g>
<!-- AdminComponent -->
<g id="node1" class="node">
<title>AdminComponent</title>
<polygon fill="#ffffb3" stroke="black" points="2793.22,-122 2672.78,-122 2672.78,-86 2793.22,-86 2793.22,-122"/>
<text text-anchor="middle" x="2733" y="-99.8" font-family="Times,serif" font-size="14.00">AdminComponent</text>
</g>
<!-- AppModule -->
<g id="node19" class="node">
<title>AppModule</title>
<polygon fill="#8dd3c7" stroke="black" points="1712.66,-187 1709.66,-191 1688.66,-191 1685.66,-187 1629.34,-187 1629.34,-151 1712.66,-151 1712.66,-187"/>
<text text-anchor="middle" x="1671" y="-164.8" font-family="Times,serif" font-size="14.00">AppModule</text>
</g>
<!-- AdminComponent&#45;&gt;AppModule -->
<g id="edge1" class="edge">
<title>AdminComponent&#45;&gt;AppModule</title>
<path fill="none" stroke="black" d="M2733,-122.31C2733,-142.15 2733,-171 2733,-171 2733,-171 1722.96,-171 1722.96,-171"/>
<polygon fill="black" stroke="black" points="1722.96,-167.5 1712.96,-171 1722.96,-174.5 1722.96,-167.5"/>
</g>
<!-- AppComponent -->
<g id="node2" class="node">
<title>AppComponent</title>
<polygon fill="#ffffb3" stroke="black" points="2654.94,-122 2549.06,-122 2549.06,-86 2654.94,-86 2654.94,-122"/>
<text text-anchor="middle" x="2602" y="-99.8" font-family="Times,serif" font-size="14.00">AppComponent</text>
</g>
<!-- AppComponent&#45;&gt;AppModule -->
<g id="edge2" class="edge">
<title>AppComponent&#45;&gt;AppModule</title>
<path fill="none" stroke="black" d="M2602,-122.17C2602,-141.09 2602,-168 2602,-168 2602,-168 1722.81,-168 1722.81,-168"/>
<polygon fill="black" stroke="black" points="1722.81,-164.5 1712.81,-168 1722.81,-171.5 1722.81,-164.5"/>
</g>
<!-- ArticleCreationComponent -->
<g id="node3" class="node">
<title>ArticleCreationComponent</title>
<polygon fill="#ffffb3" stroke="black" points="2531.41,-122 2362.59,-122 2362.59,-86 2531.41,-86 2531.41,-122"/>
<text text-anchor="middle" x="2447" y="-99.8" font-family="Times,serif" font-size="14.00">ArticleCreationComponent</text>
</g>
<!-- ArticleCreationComponent&#45;&gt;AppModule -->
<g id="edge3" class="edge">
<title>ArticleCreationComponent&#45;&gt;AppModule</title>
<path fill="none" stroke="black" d="M2447,-122.3C2447,-140.27 2447,-165 2447,-165 2447,-165 1722.72,-165 1722.72,-165"/>
<polygon fill="black" stroke="black" points="1722.72,-161.5 1712.72,-165 1722.72,-168.5 1722.72,-161.5"/>
</g>
<!-- ArticleDetailsComponent -->
<g id="node4" class="node">
<title>ArticleDetailsComponent</title>
<polygon fill="#ffffb3" stroke="black" points="2344.85,-122 2185.15,-122 2185.15,-86 2344.85,-86 2344.85,-122"/>
<text text-anchor="middle" x="2265" y="-99.8" font-family="Times,serif" font-size="14.00">ArticleDetailsComponent</text>
</g>
<!-- ArticleDetailsComponent&#45;&gt;AppModule -->
<g id="edge4" class="edge">
<title>ArticleDetailsComponent&#45;&gt;AppModule</title>
<path fill="none" stroke="black" d="M2265,-122.04C2265,-138.73 2265,-161 2265,-161 2265,-161 1722.77,-161 1722.77,-161"/>
<polygon fill="black" stroke="black" points="1722.77,-157.5 1712.77,-161 1722.77,-164.5 1722.77,-157.5"/>
</g>
<!-- ArticleFeedComponent -->
<g id="node5" class="node">
<title>ArticleFeedComponent</title>
<polygon fill="#ffffb3" stroke="black" points="2166.91,-122 2019.09,-122 2019.09,-86 2166.91,-86 2166.91,-122"/>
<text text-anchor="middle" x="2093" y="-99.8" font-family="Times,serif" font-size="14.00">ArticleFeedComponent</text>
</g>
<!-- ArticleFeedComponent&#45;&gt;AppModule -->
<g id="edge5" class="edge">
<title>ArticleFeedComponent&#45;&gt;AppModule</title>
<path fill="none" stroke="black" d="M2093,-122.28C2093,-137.95 2093,-158 2093,-158 2093,-158 1723.01,-158 1723.01,-158"/>
<polygon fill="black" stroke="black" points="1723.01,-154.5 1713.01,-158 1723.01,-161.5 1723.01,-154.5"/>
</g>
<!-- ArticleFormComponent -->
<g id="node6" class="node">
<title>ArticleFormComponent</title>
<polygon fill="#ffffb3" stroke="black" points="2001.04,-122 1850.96,-122 1850.96,-86 2001.04,-86 2001.04,-122"/>
<text text-anchor="middle" x="1926" y="-99.8" font-family="Times,serif" font-size="14.00">ArticleFormComponent</text>
</g>
<!-- ArticleFormComponent&#45;&gt;AppModule -->
<g id="edge6" class="edge">
<title>ArticleFormComponent&#45;&gt;AppModule</title>
<path fill="none" stroke="black" d="M1926,-122.12C1926,-136.78 1926,-155 1926,-155 1926,-155 1722.82,-155 1722.82,-155"/>
<polygon fill="black" stroke="black" points="1722.82,-151.5 1712.82,-155 1722.82,-158.5 1722.82,-151.5"/>
</g>
<!-- ArticleListItemComponent -->
<g id="node7" class="node">
<title>ArticleListItemComponent</title>
<polygon fill="#ffffb3" stroke="black" points="1832.64,-122 1665.36,-122 1665.36,-86 1832.64,-86 1832.64,-122"/>
<text text-anchor="middle" x="1749" y="-99.8" font-family="Times,serif" font-size="14.00">ArticleListItemComponent</text>
</g>
<!-- ArticleListItemComponent&#45;&gt;AppModule -->
<g id="edge7" class="edge">
<title>ArticleListItemComponent&#45;&gt;AppModule</title>
<path fill="none" stroke="black" d="M1689.01,-122.11C1689.01,-122.11 1689.01,-140.99 1689.01,-140.99"/>
<polygon fill="black" stroke="black" points="1685.51,-140.99 1689.01,-150.99 1692.51,-140.99 1685.51,-140.99"/>
</g>
<!-- AuthComponent -->
<g id="node8" class="node">
<title>AuthComponent</title>
<polygon fill="#ffffb3" stroke="black" points="1647.83,-122 1538.17,-122 1538.17,-86 1647.83,-86 1647.83,-122"/>
<text text-anchor="middle" x="1593" y="-99.8" font-family="Times,serif" font-size="14.00">AuthComponent</text>
</g>
<!-- AuthComponent&#45;&gt;AppModule -->
<g id="edge8" class="edge">
<title>AuthComponent&#45;&gt;AppModule</title>
<path fill="none" stroke="black" d="M1638.42,-122.11C1638.42,-122.11 1638.42,-140.99 1638.42,-140.99"/>
<polygon fill="black" stroke="black" points="1634.92,-140.99 1638.42,-150.99 1641.92,-140.99 1634.92,-140.99"/>
</g>
<!-- CommentFormComponent -->
<g id="node9" class="node">
<title>CommentFormComponent</title>
<polygon fill="#ffffb3" stroke="black" points="1520.39,-122 1353.61,-122 1353.61,-86 1520.39,-86 1520.39,-122"/>
<text text-anchor="middle" x="1437" y="-99.8" font-family="Times,serif" font-size="14.00">CommentFormComponent</text>
</g>
<!-- CommentFormComponent&#45;&gt;AppModule -->
<g id="edge9" class="edge">
<title>CommentFormComponent&#45;&gt;AppModule</title>
<path fill="none" stroke="black" d="M1437,-122.12C1437,-136.78 1437,-155 1437,-155 1437,-155 1619.17,-155 1619.17,-155"/>
<polygon fill="black" stroke="black" points="1619.17,-158.5 1629.17,-155 1619.17,-151.5 1619.17,-158.5"/>
</g>
<!-- CommentItemComponent -->
<g id="node10" class="node">
<title>CommentItemComponent</title>
<polygon fill="#ffffb3" stroke="black" points="1335.21,-122 1172.79,-122 1172.79,-86 1335.21,-86 1335.21,-122"/>
<text text-anchor="middle" x="1254" y="-99.8" font-family="Times,serif" font-size="14.00">CommentItemComponent</text>
</g>
<!-- CommentItemComponent&#45;&gt;AppModule -->
<g id="edge10" class="edge">
<title>CommentItemComponent&#45;&gt;AppModule</title>
<path fill="none" stroke="black" d="M1254,-122.28C1254,-137.95 1254,-158 1254,-158 1254,-158 1619.11,-158 1619.11,-158"/>
<polygon fill="black" stroke="black" points="1619.11,-161.5 1629.11,-158 1619.11,-154.5 1619.11,-161.5"/>
</g>
<!-- LoaderComponent -->
<g id="node11" class="node">
<title>LoaderComponent</title>
<polygon fill="#ffffb3" stroke="black" points="1154.47,-122 1033.53,-122 1033.53,-86 1154.47,-86 1154.47,-122"/>
<text text-anchor="middle" x="1094" y="-99.8" font-family="Times,serif" font-size="14.00">LoaderComponent</text>
</g>
<!-- LoaderComponent&#45;&gt;AppModule -->
<g id="edge11" class="edge">
<title>LoaderComponent&#45;&gt;AppModule</title>
<path fill="none" stroke="black" d="M1094,-122.04C1094,-138.73 1094,-161 1094,-161 1094,-161 1619.04,-161 1619.04,-161"/>
<polygon fill="black" stroke="black" points="1619.04,-164.5 1629.04,-161 1619.04,-157.5 1619.04,-164.5"/>
</g>
<!-- LoginComponent -->
<g id="node12" class="node">
<title>LoginComponent</title>
<polygon fill="#ffffb3" stroke="black" points="1015.28,-122 900.72,-122 900.72,-86 1015.28,-86 1015.28,-122"/>
<text text-anchor="middle" x="958" y="-99.8" font-family="Times,serif" font-size="14.00">LoginComponent</text>
</g>
<!-- LoginComponent&#45;&gt;AppModule -->
<g id="edge12" class="edge">
<title>LoginComponent&#45;&gt;AppModule</title>
<path fill="none" stroke="black" d="M958,-122.3C958,-140.27 958,-165 958,-165 958,-165 1619.32,-165 1619.32,-165"/>
<polygon fill="black" stroke="black" points="1619.32,-168.5 1629.32,-165 1619.32,-161.5 1619.32,-168.5"/>
</g>
<!-- MainComponent -->
<g id="node13" class="node">
<title>MainComponent</title>
<polygon fill="#ffffb3" stroke="black" points="882.38,-122 771.62,-122 771.62,-86 882.38,-86 882.38,-122"/>
<text text-anchor="middle" x="827" y="-99.8" font-family="Times,serif" font-size="14.00">MainComponent</text>
</g>
<!-- MainComponent&#45;&gt;AppModule -->
<g id="edge13" class="edge">
<title>MainComponent&#45;&gt;AppModule</title>
<path fill="none" stroke="black" d="M827,-122.17C827,-141.09 827,-168 827,-168 827,-168 1619.15,-168 1619.15,-168"/>
<polygon fill="black" stroke="black" points="1619.15,-171.5 1629.15,-168 1619.15,-164.5 1619.15,-171.5"/>
</g>
<!-- ProfileComponent -->
<g id="node14" class="node">
<title>ProfileComponent</title>
<polygon fill="#ffffb3" stroke="black" points="753.93,-122 634.07,-122 634.07,-86 753.93,-86 753.93,-122"/>
<text text-anchor="middle" x="694" y="-99.8" font-family="Times,serif" font-size="14.00">ProfileComponent</text>
</g>
<!-- ProfileComponent&#45;&gt;AppModule -->
<g id="edge14" class="edge">
<title>ProfileComponent&#45;&gt;AppModule</title>
<path fill="none" stroke="black" d="M694,-122.31C694,-142.15 694,-171 694,-171 694,-171 1619.33,-171 1619.33,-171"/>
<polygon fill="black" stroke="black" points="1619.33,-174.5 1629.33,-171 1619.33,-167.5 1619.33,-174.5"/>
</g>
<!-- RegisterComponent -->
<g id="node15" class="node">
<title>RegisterComponent</title>
<polygon fill="#ffffb3" stroke="black" points="615.98,-122 488.02,-122 488.02,-86 615.98,-86 615.98,-122"/>
<text text-anchor="middle" x="552" y="-99.8" font-family="Times,serif" font-size="14.00">RegisterComponent</text>
</g>
<!-- RegisterComponent&#45;&gt;AppModule -->
<g id="edge15" class="edge">
<title>RegisterComponent&#45;&gt;AppModule</title>
<path fill="none" stroke="black" d="M552,-122.03C552,-142.77 552,-174 552,-174 552,-174 1619.18,-174 1619.18,-174"/>
<polygon fill="black" stroke="black" points="1619.18,-177.5 1629.18,-174 1619.18,-170.5 1619.18,-177.5"/>
</g>
<!-- UserDetailsComponent -->
<g id="node16" class="node">
<title>UserDetailsComponent</title>
<polygon fill="#ffffb3" stroke="black" points="469.91,-122 322.09,-122 322.09,-86 469.91,-86 469.91,-122"/>
<text text-anchor="middle" x="396" y="-99.8" font-family="Times,serif" font-size="14.00">UserDetailsComponent</text>
</g>
<!-- UserDetailsComponent&#45;&gt;AppModule -->
<g id="edge16" class="edge">
<title>UserDetailsComponent&#45;&gt;AppModule</title>
<path fill="none" stroke="black" d="M396,-122.29C396,-144.21 396,-178 396,-178 396,-178 1619.3,-178 1619.3,-178"/>
<polygon fill="black" stroke="black" points="1619.3,-181.5 1629.3,-178 1619.3,-174.5 1619.3,-181.5"/>
</g>
<!-- UsernameComponent -->
<g id="node17" class="node">
<title>UsernameComponent</title>
<polygon fill="#ffffb3" stroke="black" points="304.08,-122 165.92,-122 165.92,-86 304.08,-86 304.08,-122"/>
<text text-anchor="middle" x="235" y="-99.8" font-family="Times,serif" font-size="14.00">UsernameComponent</text>
</g>
<!-- UsernameComponent&#45;&gt;AppModule -->
<g id="edge17" class="edge">
<title>UsernameComponent&#45;&gt;AppModule</title>
<path fill="none" stroke="black" d="M235,-122.25C235,-145.02 235,-181 235,-181 235,-181 1619.19,-181 1619.19,-181"/>
<polygon fill="black" stroke="black" points="1619.19,-184.5 1629.19,-181 1619.19,-177.5 1619.19,-184.5"/>
</g>
<!-- UsernameDirective -->
<g id="node18" class="node">
<title>UsernameDirective</title>
<polygon fill="#ffffb3" stroke="black" points="148.33,-122 23.67,-122 23.67,-86 148.33,-86 148.33,-122"/>
<text text-anchor="middle" x="86" y="-99.8" font-family="Times,serif" font-size="14.00">UsernameDirective</text>
</g>
<!-- UsernameDirective&#45;&gt;AppModule -->
<g id="edge18" class="edge">
<title>UsernameDirective&#45;&gt;AppModule</title>
<path fill="none" stroke="black" d="M86,-122.15C86,-145.76 86,-184 86,-184 86,-184 1619.01,-184 1619.01,-184"/>
<polygon fill="black" stroke="black" points="1619.01,-187.5 1629.01,-184 1619.01,-180.5 1619.01,-187.5"/>
</g>
<!-- AppComponent  -->
<g id="node21" class="node">
<title>AppComponent </title>
<polygon fill="#80b1d3" stroke="black" points="1725.44,-252 1616.56,-252 1616.56,-216 1725.44,-216 1725.44,-252"/>
<text text-anchor="middle" x="1671" y="-229.8" font-family="Times,serif" font-size="14.00">AppComponent </text>
</g>
<!-- AppModule&#45;&gt;AppComponent  -->
<g id="edge20" class="edge">
<title>AppModule&#45;&gt;AppComponent </title>
<path fill="none" stroke="black" stroke-dasharray="1,5" d="M1671,-187.11C1671,-187.11 1671,-205.99 1671,-205.99"/>
<polygon fill="black" stroke="black" points="1667.5,-205.99 1671,-215.99 1674.5,-205.99 1667.5,-205.99"/>
</g>
<!-- AppRoutingModule -->
<g id="node20" class="node">
<title>AppRoutingModule</title>
<polygon fill="#8dd3c7" stroke="black" points="2945.27,-122 2942.27,-126 2921.27,-126 2918.27,-122 2816.73,-122 2816.73,-86 2945.27,-86 2945.27,-122"/>
<text text-anchor="middle" x="2881" y="-99.8" font-family="Times,serif" font-size="14.00">AppRoutingModule</text>
</g>
<!-- AppRoutingModule&#45;&gt;AppModule -->
<g id="edge19" class="edge">
<title>AppRoutingModule&#45;&gt;AppModule</title>
<path fill="none" stroke="black" d="M2881,-122.03C2881,-142.77 2881,-174 2881,-174 2881,-174 1723,-174 1723,-174"/>
<polygon fill="black" stroke="black" points="1723,-170.5 1713,-174 1723,-177.5 1723,-170.5"/>
</g>
<!-- ArticleService -->
<g id="node22" class="node">
<title>ArticleService</title>
<ellipse fill="#fdb462" stroke="black" cx="3334" cy="-104" rx="66.61" ry="18"/>
<text text-anchor="middle" x="3334" y="-99.8" font-family="Times,serif" font-size="14.00">ArticleService</text>
</g>
<!-- ArticleService&#45;&gt;AppModule -->
<g id="edge21" class="edge">
<title>ArticleService&#45;&gt;AppModule</title>
<path fill="none" stroke="black" d="M3334,-122.15C3334,-145.76 3334,-184 3334,-184 3334,-184 1722.94,-184 1722.94,-184"/>
<polygon fill="black" stroke="black" points="1722.94,-180.5 1712.94,-184 1722.94,-187.5 1722.94,-180.5"/>
</g>
<!-- AuthInterceptor -->
<g id="node23" class="node">
<title>AuthInterceptor</title>
<ellipse fill="#fdb462" stroke="black" cx="3176" cy="-104" rx="72.91" ry="18"/>
<text text-anchor="middle" x="3176" y="-99.8" font-family="Times,serif" font-size="14.00">AuthInterceptor</text>
</g>
<!-- AuthInterceptor&#45;&gt;AppModule -->
<g id="edge22" class="edge">
<title>AuthInterceptor&#45;&gt;AppModule</title>
<path fill="none" stroke="black" d="M3176,-122.25C3176,-145.02 3176,-181 3176,-181 3176,-181 1722.82,-181 1722.82,-181"/>
<polygon fill="black" stroke="black" points="1722.82,-177.5 1712.82,-181 1722.82,-184.5 1722.82,-177.5"/>
</g>
<!-- UserService -->
<g id="node24" class="node">
<title>UserService</title>
<ellipse fill="#fdb462" stroke="black" cx="3027" cy="-104" rx="58.44" ry="18"/>
<text text-anchor="middle" x="3027" y="-99.8" font-family="Times,serif" font-size="14.00">UserService</text>
</g>
<!-- UserService&#45;&gt;AppModule -->
<g id="edge23" class="edge">
<title>UserService&#45;&gt;AppModule</title>
<path fill="none" stroke="black" d="M3027,-122.29C3027,-144.21 3027,-178 3027,-178 3027,-178 1722.7,-178 1722.7,-178"/>
<polygon fill="black" stroke="black" points="1722.7,-174.5 1712.7,-178 1722.7,-181.5 1722.7,-174.5"/>
</g>
</g>
</svg>
